<?xml version="1.0"?>
<svg version="1.1" xmlns="http://www.w3.org/2000/svg" width="400" height="52" style=""><path fill="#1896f0" d="M25.5,18.65l0,12.306c1.218-1.008,3.948-2.856,7.056-2.856c4.284,0,6.594,2.856,6.594,7.56l0,11.13l2.94,1.05l0,3.36l-11.424,0l0-3.36l2.184-1.008l0-10.164c0-2.1-0.84-3.36-2.772-3.36c-2.352,0-4.578,2.226-4.578,2.226l0,11.256l2.226,1.05l0,3.36l-11.886,0l0-3.36l3.36-1.05l0-23.604l-3.36-0.84l0-3.36z M58.86942,28.1c6.804,0,10.584,4.116,10.584,11.34c0,7.56-4.41,12.18-11.214,12.18c-6.846,0-10.71-3.57-10.71-11.55c0-7.56,4.494-11.97,11.34-11.97z M58.65942,33.14c-3.066,0-4.62,1.68-4.62,6.72c0,4.62,1.344,6.72,4.41,6.72c3.024,0,4.494-1.89,4.494-6.93c0-4.284-1.26-6.51-4.284-6.51z M93.16284,44.354l2.1,3.696c-1.05,0.924-4.326,3.57-9.03,3.57c-6.93,0-10.92-4.284-10.92-11.424c0-7.476,4.2-12.096,11.55-12.096c3.612,0,7.35,1.47,7.35,1.47l-0.21,6.888l-3.78,0l-0.588-2.982s-1.218-0.336-2.898-0.336c-3.024,0-4.914,2.016-4.914,6.216c0,4.578,1.764,7.224,5.25,7.224c2.94,0,4.788-1.47,6.09-2.226z M102.88626,21.59c0-2.394,1.722-3.78,3.612-3.78c2.184,0,3.528,1.134,3.528,3.78c0,2.478-1.806,3.822-3.528,3.822c-2.268,0-3.612-1.344-3.612-3.822z M109.94226,46.79l2.94,1.05l0,3.36l-12.6,0l0-3.36l3.36-1.05l0-13.65l-3.36-1.05l0-3.36l9.66-0.21l0,18.27z M127.43568,28.52l0.294,2.898s3.99-3.234,7.728-3.234c4.074,0,6.384,2.898,6.384,7.476l0,11.13l2.94,1.05l0,3.36l-11.55,0l0-3.36l2.31-1.05l0-9.996c0-1.932-1.092-3.36-2.856-3.36c-2.604,0-4.494,2.394-4.494,2.394l0,10.962l2.31,1.05l0,3.36l-11.97,0l0-3.36l3.36-1.05l0-13.65l-3.36-1.05l0-3.36z M170.7171,41.246l-13.944,0c0.252,3.36,2.184,5.334,5.082,5.334c3.486,0,7.056-1.974,7.056-1.974l1.806,3.486s-4.2,3.528-9.576,3.528c-7.224,0-10.92-4.2-10.92-11.34c0-7.35,4.158-12.18,11.214-12.18c6.258,0,9.534,3.864,9.534,9.87c0,1.596-0.252,3.15-0.252,3.276z M156.8571,37.34l7.602,0c0-2.394-1.008-4.2-3.444-4.2c-2.352,0-3.822,1.722-4.158,4.2z"/><path fill="#" d="M202.05794,39.2l-0.198-1.166c-0.308,0.308-1.43,1.386-3.322,1.386c-3.08,0-4.51-2.244-4.51-5.874c0-4.136,1.98-6.446,6.006-6.446c0.528,0,1.166,0.11,1.65,0.22l0-2.794l-1.76-0.44l0-1.76l5.06-0.176l0,14.696l1.76,0.44l0,1.76z M201.68394,35.526l0-5.456c-0.418-0.198-1.078-0.33-1.716-0.33c-1.87,0-2.53,1.43-2.53,3.63c0,2.222,0.616,3.41,2.112,3.41c1.408,0,2.134-1.254,2.134-1.254z M219.09716,29.366l-5.5,7.414l3.212,0l0.374-1.87l1.98,0l0,4.29l-9.57,0l0-2.024l5.588-7.436l-3.014,0l-0.33,1.606l-1.98,0l0-4.026l9.24,0l0,2.046z"/></svg>
